<svg width="176" height="38" viewBox="0 0 176 38" fill="none" xmlns="http://www.w3.org/2000/svg">
<path d="M15.2267 12.4264C15.5264 12.2769 15.8074 12.2021 16.0696 12.2021C16.3318 12.2021 16.5753 12.2395 16.7814 12.3329C16.9874 12.4264 17.1747 12.5572 17.3246 12.7067C17.4744 12.8562 17.6055 13.043 17.6992 13.2299C17.7928 13.4354 17.8677 13.641 17.9052 13.8652C17.9427 14.0894 17.9239 14.3137 17.8677 14.5379C17.8116 14.7621 17.6992 14.9677 17.5306 15.1732C17.362 15.3788 17.1372 15.5469 16.8376 15.6964L2.67708 22.5915C2.37739 22.741 2.09643 22.8158 1.85293 22.8158C1.60943 22.8158 1.36593 22.7784 1.14116 22.685C0.935122 22.5915 0.747814 22.4607 0.597968 22.3112C0.448122 22.1431 0.317006 21.9562 0.223353 21.7694C0.129699 21.5825 0.0735063 21.3769 0.0360447 21.1527C-0.00141683 20.9285 0.017314 20.7043 0.0547755 20.4987C0.110968 20.2745 0.204622 20.0689 0.373199 19.8634C0.541776 19.6578 0.766545 19.4897 1.08497 19.3402L15.2454 12.4451L15.2267 12.4264ZM5.4867 25.3944L5.09336 24.6096C4.73747 23.8809 4.66255 23.2642 4.88732 22.7597C5.11209 22.2552 5.52416 21.8441 6.17974 21.5264C6.81659 21.2088 7.39724 21.134 7.9217 21.2835C8.44616 21.433 8.87697 21.8628 9.23286 22.5729L9.6262 23.3577L13.2225 21.6012L12.8292 20.8164C12.4733 20.0876 12.3984 19.471 12.6231 18.9665C12.8479 18.4619 13.26 18.0509 13.9156 17.7332C14.5524 17.4155 15.1331 17.3408 15.6575 17.4903C16.182 17.6398 16.6128 18.0695 16.9687 18.7796L17.362 19.5644L18.7668 18.873C19.0665 18.7235 19.3475 18.6488 19.6097 18.6488C19.8719 18.6488 20.0967 18.6675 20.3027 18.7609C20.5088 18.8543 20.6774 18.9665 20.8272 19.1346C20.9771 19.2841 21.1082 19.471 21.2018 19.6765C21.2955 19.8821 21.3704 20.0876 21.3891 20.3119C21.4266 20.5361 21.3891 20.7416 21.3517 20.9659C21.3142 21.1901 21.1831 21.377 21.0145 21.5638C20.8459 21.7507 20.6212 21.9188 20.3215 22.0683L5.65528 29.2064C5.35559 29.3559 5.09335 29.4306 4.83112 29.4493C4.58762 29.4493 4.34412 29.4306 4.13809 29.3559C3.93205 29.2811 3.74474 29.1503 3.59489 29.0008C3.44505 28.8513 3.31393 28.6645 3.22028 28.4589C3.12662 28.2534 3.0517 28.0478 3.03297 27.8236C2.99551 27.5994 3.03297 27.3938 3.07043 27.1696C3.12662 26.9641 3.23901 26.7585 3.40759 26.553C3.57616 26.3661 3.80093 26.1792 4.10062 26.0484L5.50543 25.3571L5.4867 25.3944ZM17.1747 29.1129L19.2913 33.4294L15.1705 35.4288L13.0539 31.1123L7.35978 33.8778C6.76039 34.1768 6.23593 34.2142 5.80512 34.0087C5.37432 33.8031 5.05589 33.4854 4.86859 33.0744C4.77493 32.8688 4.70001 32.6633 4.66255 32.439C4.62509 32.2148 4.64382 31.9906 4.70001 31.7663C4.7562 31.5421 4.86859 31.3366 5.03716 31.131C5.20574 30.9255 5.44924 30.7573 5.74893 30.6078L21.258 23.0587C21.5764 22.9092 21.8574 22.8345 22.1196 22.8158C22.3819 22.7971 22.6254 22.8531 22.8314 22.9466C23.0374 23.04 23.2247 23.1708 23.3933 23.339C23.5432 23.5071 23.6743 23.694 23.7679 23.8809C23.974 24.292 24.0302 24.7404 23.9178 25.2076C23.8054 25.6747 23.4682 26.0484 22.8689 26.3474L17.1747 29.1129Z" fill="#008556"/>
<path d="M31.4298 11.0619L31.5422 11.473C31.6358 11.828 31.7107 12.1643 31.7669 12.482C33.4714 12.0522 34.8388 12.183 35.9064 12.8557C36.9741 13.5284 37.7608 14.8364 38.2665 16.7611L34.2207 17.9009C34.0521 17.0227 33.7149 16.4061 33.2092 16.051C32.7035 15.696 32.1228 15.6586 31.4672 15.9015H31.4485C31.0552 16.9853 30.437 17.8822 29.6129 18.611C28.7887 19.3398 27.8709 19.863 26.8595 20.1993C26.335 20.3862 25.8293 20.3675 25.3797 20.1993C24.9115 20.0125 24.593 19.6761 24.4245 19.1903C24.2559 18.6857 24.2372 18.256 24.387 17.8822C24.5369 17.5085 24.8178 17.2282 25.2299 17.0227C26.1664 16.5742 26.8407 15.9576 27.2341 15.1728C27.6274 14.388 27.6836 13.5471 27.4214 12.6315L27.309 12.2204L24.5369 13.0052C24.2746 13.08 24.0311 13.08 23.8064 13.0426C23.5816 12.9865 23.3755 12.8931 23.207 12.7623C23.0384 12.6315 22.8698 12.482 22.7387 12.2951C22.6076 12.1083 22.5139 11.9214 22.4577 11.7159C22.4015 11.529 22.3828 11.3235 22.3828 11.0992C22.3828 10.875 22.4203 10.6508 22.4952 10.4452C22.5701 10.2397 22.7012 10.0528 22.8698 9.88466C23.0384 9.71649 23.2632 9.60437 23.5441 9.52963L33.5651 6.70805C33.8461 6.63331 34.0896 6.61462 34.3331 6.67068C34.5766 6.72674 34.7639 6.82017 34.9512 6.95097C35.1385 7.08177 35.2696 7.24994 35.4007 7.4368C35.5131 7.62366 35.6067 7.81052 35.6629 7.99738C35.7191 8.20293 35.7379 8.40847 35.7191 8.6327C35.7191 8.85693 35.6629 9.06248 35.5693 9.26803C35.4944 9.47357 35.3632 9.66043 35.1947 9.80992C35.0261 9.97809 34.8201 10.0902 34.5578 10.165L31.4485 11.0432L31.4298 11.0619ZM31.7482 28.3838C31.0926 28.5706 30.5494 28.664 30.1186 28.664C29.6878 28.664 29.3132 28.5706 29.0322 28.3838C28.7513 28.1969 28.489 27.8979 28.3017 27.5055C28.1144 27.1131 27.9084 26.5899 27.7398 25.9546L27.309 24.4036C27.1404 23.787 27.028 23.2451 26.9906 22.7967C26.9531 22.3482 26.9906 21.9745 27.1592 21.6568C27.309 21.3392 27.5712 21.0775 27.9459 20.8533C28.3205 20.6291 28.8262 20.4235 29.4818 20.2554L41.6193 16.8358C42.2749 16.649 42.8181 16.5555 43.2489 16.5555C43.6797 16.5555 44.0543 16.649 44.3353 16.8358C44.635 17.0227 44.8785 17.3217 45.0845 17.7141C45.2906 18.1252 45.4779 18.6297 45.6464 19.2463L47.0138 24.086L31.7857 28.3651L31.7482 28.3838ZM31.8981 24.4223C31.973 24.6839 32.0479 24.8334 32.1228 24.8895C32.1977 24.9269 32.3476 24.9269 32.5724 24.8708L41.8628 22.2548L41.4507 20.7599C41.3758 20.517 41.3009 20.3675 41.2072 20.3301C41.1136 20.2927 40.9637 20.2927 40.739 20.3488L31.9917 22.8153C31.7669 22.8714 31.6358 22.9461 31.5984 23.0396C31.5609 23.1143 31.5609 23.2825 31.6358 23.5254L31.8981 24.441V24.4223ZM37.3862 7.23126C37.1801 6.52119 37.2551 5.92324 37.5922 5.45609C37.9294 4.97026 38.3789 4.6526 38.9596 4.48442C39.2405 4.40968 39.5215 4.37231 39.8024 4.39099C40.1021 4.40968 40.3644 4.48442 40.6266 4.59654C40.8888 4.70865 41.0949 4.89551 41.3009 5.11974C41.5069 5.34398 41.6381 5.64295 41.7504 5.9793L44.354 15.2102L39.9897 16.4434L37.3862 7.21257V7.23126Z" fill="#008556"/>
<path d="M51.9025 1.99942C52.6143 1.90599 53.1949 1.99942 53.6632 2.35445C54.1314 2.6908 54.4124 3.21401 54.5061 3.92407V4.12962L57.6528 3.68116C58.196 3.60641 58.6456 3.71853 58.9827 4.0175C59.3199 4.31648 59.5072 4.70888 59.5821 5.17603C59.657 5.64318 59.5821 6.07296 59.3199 6.46536C59.0764 6.83908 58.7018 7.082 58.1586 7.15674H58.1211C58.2897 7.43703 58.4208 7.73601 58.5519 8.03498C58.6643 8.33396 58.7579 8.68899 58.8141 9.0814L59.8069 15.9765C59.938 16.9482 59.9193 17.8264 59.7319 18.5739C59.5446 19.3213 59.2262 19.9753 58.7767 20.5172C58.3271 21.0591 57.7652 21.4889 57.1096 21.8252C56.4353 22.1616 55.6861 22.3858 54.8807 22.4979C54.0565 22.61 53.2886 22.61 52.5581 22.4792C51.8276 22.3484 51.172 22.0868 50.5913 21.6944C50.0107 21.302 49.5237 20.7601 49.1303 20.0874C48.737 19.4147 48.456 18.5925 48.3249 17.6022L47.3322 10.7071C47.2198 9.97832 47.2573 9.30563 47.4258 8.6703C46.8826 8.74505 46.4518 8.63293 46.1147 8.33396C45.7775 8.03498 45.5715 7.64258 45.4966 7.17543C45.4216 6.70828 45.4966 6.2785 45.7401 5.90478C45.9648 5.53106 46.3582 5.28815 46.9014 5.2134L49.9919 4.76494V4.55939C49.8608 3.84933 49.9919 3.27006 50.3478 2.8216C50.7037 2.37314 51.2282 2.09285 51.9399 1.99942H51.9025ZM54.3188 18.8915C54.7496 18.8355 55.1054 18.6112 55.3864 18.2375C55.6674 17.8638 55.761 17.3032 55.6486 16.5931L54.6372 9.4738C54.5248 8.74505 54.3 8.25921 53.9441 8.0163C53.5883 7.77338 53.1762 7.67995 52.7266 7.73601C52.2958 7.79206 51.9399 7.99761 51.659 8.33396C51.378 8.6703 51.3031 9.2122 51.3968 9.94095L52.4082 17.0603C52.5019 17.7704 52.7454 18.2749 53.12 18.5552C53.4946 18.8355 53.8879 18.9476 54.3188 18.8915ZM60.6498 3.00846C60.5561 2.29839 60.6872 1.73782 61.0806 1.30804C61.4739 0.878262 61.9609 0.635345 62.5416 0.541915C62.8225 0.504543 63.1035 0.504543 63.3845 0.560601C63.6654 0.616659 63.9276 0.728775 64.1524 0.878262C64.3772 1.02775 64.5645 1.2333 64.7331 1.47621C64.9016 1.71913 65.014 2.01811 65.0515 2.37314L65.8569 7.99761L66.5874 7.88549C66.9246 7.82944 67.2243 7.84812 67.449 7.94155C67.6738 8.03498 67.8798 8.1471 68.0484 8.31527C68.1983 8.48344 68.3294 8.6703 68.423 8.89454C68.5167 9.11877 68.5729 9.343 68.6103 9.56723C68.6478 9.79146 68.6478 10.0157 68.6103 10.2586C68.5916 10.5015 68.5167 10.7258 68.4043 10.9126C68.2919 11.1182 68.1421 11.2863 67.9173 11.4545C67.6925 11.6227 67.4303 11.6974 67.1119 11.7535L66.3814 11.8656L67.7113 21.0778L63.3095 21.7131L60.631 3.02715L60.6498 3.00846Z" fill="#008556"/>
<path d="M76.2145 16.5744L76.0272 9.8475C76.0272 9.49246 76.0647 9.1748 76.1958 8.9132C76.3082 8.6516 76.4767 8.42736 76.6828 8.2405C76.8888 8.07233 77.1323 7.94153 77.3946 7.8481C77.6755 7.77336 77.9565 7.7173 78.2562 7.7173C78.5371 7.7173 78.8181 7.73598 79.0991 7.81073C79.38 7.88547 79.6235 7.99759 79.8483 8.16576C80.0731 8.31525 80.2416 8.53948 80.3915 8.7824C80.5226 9.044 80.5975 9.34298 80.6163 9.71669L80.8036 16.4436L88.8765 16.2194C89.2137 16.2194 89.5134 16.2568 89.7569 16.3502C90.0004 16.4436 90.2064 16.5744 90.3563 16.7426C90.5061 16.9108 90.6185 17.0976 90.6934 17.3219C90.7683 17.5461 90.8058 17.7517 90.8058 17.9759C90.8058 18.443 90.6934 18.8541 90.4125 19.2465C90.1315 19.6202 89.6445 19.8258 88.9889 19.8445L71.7379 20.3303C71.0636 20.349 70.5766 20.1808 70.2769 19.8071C69.9772 19.4334 69.8086 19.0223 69.8086 18.5552C69.8086 18.3309 69.8273 18.1067 69.8835 17.8825C69.9397 17.6582 70.0521 17.4714 70.2019 17.2845C70.3518 17.1163 70.5391 16.9668 70.7826 16.8547C71.0261 16.7426 71.3071 16.6866 71.6629 16.6679L76.2707 16.5371L76.2145 16.5744ZM84.0814 12.4635C84.3999 11.6787 84.6246 10.7444 84.7745 9.69801C84.9056 8.63291 84.9618 7.36227 84.9056 5.8487L84.8681 4.42857C84.8681 4.2604 84.8119 4.1296 84.7183 4.03617C84.6246 3.94274 84.4748 3.88668 84.3062 3.88668L72.1125 4.22302C71.7753 4.22302 71.4756 4.18565 71.2134 4.07354C70.9699 3.96142 70.7639 3.83062 70.5953 3.64376C70.4267 3.4569 70.3143 3.25136 70.2207 3.02712C70.127 2.80289 70.0896 2.57866 70.0708 2.35443C70.0708 2.1302 70.0896 1.90597 70.1645 1.66305C70.2394 1.43882 70.3518 1.21459 70.5016 1.02773C70.6702 0.840868 70.8575 0.69138 71.101 0.560579C71.3445 0.429777 71.6442 0.373719 71.9814 0.355033L85.711 0C86.3666 0 86.9285 0.0373719 87.3593 0.149488C87.8089 0.261603 88.1648 0.448463 88.4457 0.710066C88.7267 0.971669 88.914 1.28933 89.0451 1.70042C89.1762 2.09283 89.2324 2.57866 89.2511 3.13924L89.3261 5.79264C89.4197 9.36166 89.0638 12.0338 88.2397 13.7902C88.0898 14.0892 87.9025 14.3508 87.659 14.575C87.4155 14.7993 87.1533 14.9488 86.8536 15.0609C86.5539 15.173 86.2355 15.229 85.9171 15.2477C85.5986 15.2664 85.2802 15.1917 84.9618 15.0796C84.4561 14.8927 84.1376 14.5377 83.9691 14.0518C83.8192 13.566 83.8379 13.0615 84.044 12.5196L84.0814 12.4635Z" fill="#008556"/>
<path d="M111.527 15.4535C111.527 15.4535 111.527 15.547 111.508 15.5843C111.489 15.6217 111.489 15.6778 111.489 15.7151C112.332 15.7899 113.156 15.9954 113.98 16.3131C114.805 16.6307 115.554 17.0792 116.228 17.6772C116.902 18.2564 117.446 18.9852 117.876 19.8447C118.307 20.7043 118.532 21.7133 118.551 22.8532L113.98 22.33C113.905 21.8254 113.737 21.3583 113.475 20.9285C113.231 20.4987 112.894 20.125 112.501 19.826C112.107 19.5084 111.639 19.2841 111.133 19.0973C110.628 18.9104 110.084 18.817 109.485 18.7983C108.904 19.2655 108.23 19.6766 107.5 20.0316C106.75 20.3679 105.982 20.6482 105.196 20.8351C104.409 21.0219 103.622 21.1341 102.854 21.1714C102.086 21.2088 101.356 21.1714 100.7 21.0033C100.438 20.9472 100.195 20.8538 99.9698 20.7043C99.745 20.5735 99.5764 20.4053 99.4266 20.1998C99.2767 19.9942 99.1643 19.7887 99.0894 19.5458C99.0145 19.3028 99.0145 19.0599 99.052 18.7796C99.1456 18.2751 99.3704 17.8827 99.7075 17.6211C100.063 17.3408 100.457 17.2287 100.888 17.2661C101.019 17.2661 101.169 17.3034 101.356 17.3034C101.524 17.3034 101.674 17.3034 101.824 17.3034C102.33 17.3034 102.836 17.2474 103.341 17.1539C103.866 17.0605 104.353 16.911 104.821 16.7055C105.289 16.4999 105.72 16.2383 106.095 15.9207C106.469 15.603 106.788 15.2293 107.013 14.7808C107.368 14.0895 107.762 13.641 108.211 13.4168C108.661 13.1925 109.185 13.1365 109.766 13.2486C110.365 13.342 110.815 13.5662 111.171 13.9213C111.508 14.2763 111.639 14.7808 111.564 15.4348L111.527 15.4535ZM102.761 11.5295C102.086 11.4547 101.562 11.3426 101.15 11.1744C100.738 11.0063 100.438 10.8007 100.251 10.5017C100.045 10.2215 99.9323 9.84774 99.8948 9.41796C99.8574 8.98819 99.8948 8.42761 99.951 7.7736L100.419 3.64401C100.494 3.00868 100.588 2.46679 100.719 2.03701C100.85 1.60724 101.037 1.27089 101.3 1.04666C101.562 0.822427 101.899 0.67294 102.33 0.598196C102.761 0.542138 103.304 0.542138 103.978 0.598196L110.009 1.27089C110.684 1.34563 111.208 1.45775 111.62 1.62592C112.032 1.7941 112.332 1.99964 112.538 2.29862C112.744 2.57891 112.857 2.95263 112.894 3.40109C112.931 3.84955 112.894 4.39144 112.838 5.02677L111.976 12.5385L102.761 11.4921V11.5295ZM104.24 7.79229C104.222 8.0352 104.24 8.18469 104.297 8.27812C104.353 8.37155 104.503 8.40892 104.727 8.44629L108.118 8.8387L108.548 5.04545C108.567 4.83991 108.548 4.69042 108.492 4.59699C108.436 4.50356 108.286 4.4475 108.061 4.42882L105.233 4.11115C105.008 4.09247 104.858 4.11115 104.784 4.1859C104.709 4.26064 104.652 4.41013 104.634 4.61568L104.278 7.82966L104.24 7.79229ZM115.235 3.53189C115.31 2.80314 115.61 2.27993 116.078 1.96227C116.565 1.64461 117.09 1.51381 117.689 1.58855C118.27 1.66329 118.757 1.90621 119.169 2.33599C119.581 2.76577 119.731 3.34503 119.656 4.0551L119.337 6.76456L120.03 6.8393C120.368 6.87668 120.649 6.97011 120.855 7.11959C121.061 7.26908 121.229 7.43725 121.342 7.62411C121.454 7.81097 121.529 8.0352 121.566 8.27812C121.604 8.52104 121.604 8.74527 121.566 8.9695C121.548 9.19373 121.491 9.41796 121.398 9.6422C121.304 9.86643 121.192 10.072 121.042 10.2401C120.892 10.4083 120.686 10.5391 120.443 10.6326C120.199 10.726 119.918 10.7447 119.581 10.7073L118.888 10.6326L118.345 15.3975L113.924 14.8929L115.217 3.56926L115.235 3.53189Z" fill="#008556"/>
<path d="M122.255 20.4799C123.229 20.4052 123.997 20.0875 124.54 19.5456C125.083 18.985 125.495 18.275 125.739 17.4154C125.926 16.7614 126.282 16.3316 126.769 16.1448C127.275 15.9579 127.799 15.9392 128.342 16.0887C128.885 16.2382 129.335 16.5185 129.653 16.9109C129.972 17.3033 130.065 17.8452 129.897 18.4992C129.859 18.6113 129.841 18.7234 129.803 18.8355C129.766 18.9477 129.728 19.0598 129.691 19.1719C130.403 19.4148 131.002 19.7698 131.489 20.1996C131.976 20.6481 132.332 21.2273 132.538 21.9748C133.175 21.4142 133.662 20.5546 133.943 19.4148C134.018 19.0785 134.149 18.8169 134.336 18.6113C134.523 18.4058 134.729 18.2563 134.973 18.1442C135.216 18.032 135.479 17.9947 135.741 17.976C136.003 17.976 136.284 18.0134 136.565 18.0694C137.108 18.2189 137.558 18.4992 137.876 18.8916C138.195 19.284 138.288 19.8259 138.12 20.4799C138.045 20.7789 137.951 21.0405 137.839 21.3208C138.401 21.6197 138.888 21.9748 139.318 22.4046C139.731 22.8343 140.049 23.3389 140.274 23.8994C140.499 24.46 140.611 25.0953 140.63 25.7867C140.63 26.4781 140.536 27.2255 140.311 28.029L136.34 27.0574C136.565 26.4594 136.64 25.8988 136.584 25.3943C136.528 24.8898 136.322 24.4787 135.966 24.1237C135.123 24.9085 134.205 25.4877 133.194 25.8428C132.182 26.2165 131.245 26.3099 130.346 26.1417C129.784 26.0296 129.354 25.8241 129.054 25.5064C128.754 25.1888 128.604 24.8337 128.623 24.4413C128.623 24.3105 128.623 24.1797 128.661 24.0489C128.679 23.9181 128.717 23.806 128.773 23.6939C128.848 22.8717 128.567 22.2924 127.93 21.9187C127.143 22.7035 126.263 23.2641 125.27 23.6378C124.278 24.0115 123.304 24.0863 122.33 23.8994C121.768 23.7873 121.337 23.5631 121.018 23.2267C120.7 22.8904 120.569 22.5167 120.588 22.1243C120.625 21.6197 120.775 21.2273 121.037 20.9284C121.318 20.6294 121.693 20.4612 122.199 20.4238L122.255 20.4799ZM128.53 15.2665C127.593 15.0423 126.769 14.7433 126.057 14.3696C125.345 13.9959 124.746 13.5474 124.315 13.0055C123.866 12.4636 123.566 11.847 123.416 11.1556C123.266 10.4455 123.304 9.66074 123.51 8.76381L123.716 7.94163C123.941 7.06339 124.278 6.33464 124.727 5.77406C125.195 5.21348 125.739 4.80239 126.376 4.54079C127.012 4.27918 127.743 4.14838 128.548 4.1297C129.354 4.11101 130.234 4.24181 131.171 4.46604C132.107 4.69027 132.931 4.98925 133.643 5.36297C134.355 5.73669 134.954 6.18515 135.385 6.72704C135.835 7.26894 136.134 7.88557 136.284 8.57695C136.434 9.28702 136.396 10.0718 136.19 10.9688L135.984 11.7909C135.76 12.6692 135.422 13.3979 134.973 13.9585C134.505 14.5191 133.961 14.9302 133.325 15.1918C132.688 15.4534 131.957 15.5842 131.133 15.6029C130.309 15.6216 129.447 15.4908 128.53 15.2665ZM129.297 12.146C129.878 12.2955 130.384 12.2768 130.815 12.0899C131.245 11.9031 131.526 11.5293 131.676 10.9501L131.976 9.73548C132.107 9.1749 132.032 8.70775 131.733 8.33403C131.433 7.96032 131.002 7.7174 130.421 7.56791C129.841 7.41842 129.335 7.4558 128.904 7.64265C128.473 7.82951 128.192 8.20323 128.043 8.76381L127.743 9.9784C127.593 10.5577 127.687 11.0248 127.968 11.3798C128.267 11.7349 128.698 11.9778 129.297 12.1273V12.146ZM139.431 8.42746C139.599 7.7174 139.955 7.23156 140.499 6.96996C141.023 6.70836 141.585 6.6523 142.166 6.80179C142.447 6.87653 142.709 6.98865 142.952 7.13813C143.196 7.28762 143.402 7.49317 143.57 7.7174C143.739 7.94163 143.833 8.22192 143.889 8.52089C143.945 8.81987 143.926 9.13753 143.851 9.49256L141.622 18.5926L137.221 17.5275L139.45 8.42746H139.431Z" fill="#008556"/>
<path d="M144.73 28.8328C144.056 28.5525 143.532 28.2722 143.157 27.9919C142.782 27.7116 142.539 27.4126 142.408 27.0763C142.277 26.7399 142.258 26.3475 142.352 25.8991C142.445 25.4506 142.632 24.9087 142.913 24.2547L147.783 12.8563C148.064 12.2023 148.327 11.6977 148.589 11.324C148.851 10.9503 149.151 10.6887 149.469 10.5392C149.806 10.3897 150.181 10.371 150.649 10.4458C151.099 10.5392 151.661 10.7261 152.335 11.0064L158.91 13.8092C159.209 13.9401 159.434 14.1082 159.603 14.2951C159.752 14.4819 159.846 14.6875 159.902 14.9117C159.958 15.1173 159.958 15.3415 159.902 15.5657C159.865 15.79 159.809 15.9955 159.715 16.2011C159.621 16.4066 159.509 16.6121 159.378 16.7803C159.247 16.9672 159.078 17.1167 158.872 17.2288C158.685 17.3409 158.46 17.4156 158.216 17.4343C157.973 17.453 157.711 17.4156 157.411 17.2848L152.26 15.0986C152.073 15.0238 151.904 15.0052 151.792 15.0425C151.679 15.0986 151.567 15.2294 151.473 15.4723L147.334 25.1703C147.24 25.3945 147.203 25.5814 147.259 25.6935C147.315 25.8056 147.428 25.9177 147.615 25.9925L153.721 28.5898C154.021 28.7206 154.246 28.8888 154.414 29.0757C154.564 29.2625 154.658 29.4681 154.714 29.6923C154.751 29.9165 154.77 30.1221 154.714 30.3463C154.676 30.5705 154.62 30.7761 154.527 30.9816C154.433 31.1872 154.32 31.374 154.189 31.5609C154.058 31.7478 153.89 31.8786 153.702 31.9907C153.515 32.1028 153.29 32.1589 153.047 32.1775C152.803 32.1775 152.541 32.1402 152.241 32.0281L144.712 28.8328H144.73ZM162.075 16.6495C162.356 15.9955 162.787 15.5844 163.33 15.4162C163.892 15.2481 164.435 15.2854 164.978 15.5097C165.241 15.6218 165.484 15.7713 165.69 15.9768C165.896 16.1637 166.065 16.3879 166.177 16.6308C166.289 16.8737 166.364 17.154 166.364 17.4343C166.364 17.7146 166.308 18.051 166.177 18.3686L163.948 23.582L164.622 23.881C164.941 24.0118 165.184 24.18 165.334 24.3855C165.484 24.591 165.596 24.7966 165.653 25.0208C165.709 25.2451 165.709 25.4693 165.671 25.7122C165.634 25.9551 165.578 26.1793 165.484 26.3849C165.39 26.5904 165.278 26.796 165.128 26.9828C164.978 27.1697 164.81 27.3192 164.604 27.45C164.398 27.5621 164.173 27.6369 163.911 27.6555C163.648 27.6742 163.367 27.6182 163.068 27.4874L162.393 27.1884L158.741 35.7466L154.639 34.0088L162.056 16.6495H162.075Z" fill="#008556"/>
<path d="M162.601 34.3449C162.976 33.7469 163.444 33.3919 164.006 33.2611C164.568 33.149 165.186 33.2798 165.842 33.6909C166.497 34.102 166.891 34.5878 167.022 35.1484C167.153 35.7276 167.041 36.2882 166.685 36.8862C166.329 37.4654 165.842 37.8205 165.28 37.9513C164.699 38.0821 164.1 37.9513 163.444 37.5402C162.789 37.1291 162.395 36.6619 162.264 36.0827C162.114 35.5221 162.245 34.9428 162.601 34.3449ZM164.456 31.5793L170.749 21.5076C170.937 21.2086 171.161 20.9657 171.424 20.7976C171.686 20.6294 171.948 20.5173 172.229 20.4799C172.51 20.4238 172.791 20.4425 173.072 20.4986C173.353 20.5546 173.634 20.6668 173.877 20.8349C174.121 20.9844 174.327 21.1713 174.514 21.3955C174.701 21.6197 174.833 21.8813 174.926 22.1429C175.001 22.4232 175.039 22.7035 175.001 23.0025C174.964 23.3015 174.851 23.6004 174.664 23.9181L168.37 33.9898L164.474 31.5793H164.456Z" fill="#008556"/>
</svg>
