<svg width="77" height="23" viewBox="0 0 77 23" fill="none" xmlns="http://www.w3.org/2000/svg">
<mask id="mask0_2179_842" style="mask-type:alpha" maskUnits="userSpaceOnUse" x="0" y="0" width="77" height="23">
<rect x="0.542969" y="0.045166" width="76" height="22" fill="#D9D9D9"/>
</mask>
<g mask="url(#mask0_2179_842)">
<path d="M18.8899 11.2097C18.8899 15.1383 15.922 18.2097 12.3961 18.2097C8.87028 18.2097 5.90234 15.1383 5.90234 11.2097C5.90234 7.28115 8.87028 4.20972 12.3961 4.20972C15.922 4.20972 18.8899 7.28115 18.8899 11.2097Z" fill="black" stroke="black" stroke-width="2"/>
<path d="M73.9017 11.2097C73.9017 15.1383 70.9337 18.2097 67.4079 18.2097C63.882 18.2097 60.9141 15.1383 60.9141 11.2097C60.9141 7.28115 63.882 4.20972 67.4079 4.20972C70.9337 4.20972 73.9017 7.28115 73.9017 11.2097Z" fill="black" stroke="black" stroke-width="2"/>
<path d="M17.7884 10.5564C17.7884 14.485 14.8204 17.5564 11.2946 17.5564C7.76872 17.5564 4.80078 14.485 4.80078 10.5564C4.80078 6.62782 7.76872 3.5564 11.2946 3.5564C14.8204 3.5564 17.7884 6.62782 17.7884 10.5564Z" fill="white" stroke="black" stroke-width="2"/>
<path d="M72.8001 10.5564C72.8001 14.485 69.8322 17.5564 66.3063 17.5564C62.7804 17.5564 59.8125 14.485 59.8125 10.5564C59.8125 6.62782 62.7804 3.5564 66.3063 3.5564C69.8322 3.5564 72.8001 6.62782 72.8001 10.5564Z" fill="white" stroke="black" stroke-width="2"/>
</g>
</svg>
