<svg width="39" height="29" viewBox="0 0 39 29" fill="none" xmlns="http://www.w3.org/2000/svg">
<path d="M1.68191 20.459C1.68594 20.462 1.68999 20.465 1.69406 20.468C4.00525 22.2087 7.63734 24.2354 13.0831 25.6481L13.0831 25.6481C16.2115 26.4594 19.5365 26.0601 22.6217 25.0566C25.7114 24.0516 28.625 22.4206 30.9755 20.6801C31.8471 20.035 33.2299 18.815 34.2916 17.3581C35.3167 15.9514 36.2473 14.0387 35.6452 12.1417L35.6452 12.1415C35.2469 10.8874 34.6248 9.93705 33.8282 9.27642C33.0307 8.61517 32.1137 8.29023 31.2019 8.19942C29.4181 8.02176 27.6144 8.72979 26.4536 9.62492L26.4536 9.62497C25.6975 10.2081 24.603 11.2155 23.5614 12.1742L23.5439 12.1903C22.4657 13.1826 21.4436 14.1227 20.775 14.6401L20.7748 14.6402C18.5256 16.3814 15.8874 18.1964 13.0229 18.518C10.4533 18.8064 6.2753 18.5722 3.13982 17.6043C1.38682 17.063 0.249804 19.3782 1.68191 20.459Z" fill="#E12726" stroke="#EF7127" stroke-width="2" stroke-linejoin="round"/>
<path d="M33.1263 14.5232C32.8154 14.2518 32.7033 13.8175 32.8436 13.4297C32.844 13.4286 32.8444 13.4274 32.8448 13.4263L32.8447 13.4266L32.8445 13.4272L32.8441 13.4282L32.8436 13.4296L32.8468 13.4203C32.8503 13.4098 32.8563 13.3917 32.8635 13.3677C32.8723 13.3388 32.8824 13.3033 32.8924 13.2635C32.8851 13.2633 32.8778 13.2631 32.8706 13.2628C32.5685 13.2507 32.3083 13.186 32.1305 13.1292C32.0393 13.1001 31.9636 13.0711 31.9075 13.0479C31.8793 13.0362 31.8557 13.0258 31.8371 13.0174L31.813 13.0062L31.8037 13.0018L31.7999 12.9999L31.7981 12.999L31.7973 12.9986C31.7969 12.9984 31.7965 12.9982 32.2373 12.1006L31.7965 12.9982C31.458 12.832 31.2418 12.4896 31.2373 12.1125C31.2331 11.7591 31.4157 11.4316 31.714 11.2484C31.7179 11.2451 31.7233 11.2401 31.73 11.2335C31.7584 11.2057 31.8162 11.1423 31.8848 11.0273C31.6944 10.8234 31.5757 10.6018 31.504 10.4246C31.4389 10.2639 31.4031 10.1185 31.3829 10.0124C31.3727 9.95836 31.366 9.91183 31.3616 9.87521C31.3594 9.85682 31.3578 9.84071 31.3566 9.82717L31.3551 9.80872L31.3545 9.80095L31.3543 9.79744L31.3542 9.79578L31.3541 9.79497C31.3541 9.79457 31.3541 9.79417 32.3521 9.73159L31.3541 9.79417C31.3274 9.36959 31.5723 8.97465 31.9645 8.80976C32.2949 8.67084 32.6689 8.72084 32.9488 8.92903C32.9604 8.93022 32.9754 8.93116 32.9942 8.93127L32.9947 8.93127C33.0679 8.93173 33.1447 8.9305 33.225 8.9292C33.8072 8.91983 34.5719 8.90753 35.4243 9.51733L33.1263 14.5232ZM33.1263 14.5232C33.4381 14.7954 33.8855 14.8474 34.2515 14.6538L34.2524 14.6533C34.3241 14.6154 34.3908 14.569 34.4511 14.5151M33.1263 14.5232L34.4511 14.5151M34.4511 14.5151C34.5649 14.6144 34.7028 14.6892 34.858 14.7293C35.3552 14.8578 35.869 14.5888 36.0465 14.1069C36.4075 13.1273 36.5145 12.2111 36.4186 11.4365C36.3273 10.6986 36.028 9.94911 35.4245 9.51745L34.4511 14.5151ZM32.9177 8.9238C32.9177 8.92378 32.9182 8.92393 32.9193 8.92429L32.9177 8.9238Z" fill="#38B549" stroke="#EF7127" stroke-width="2" stroke-linejoin="round"/>
<path d="M34.1533 14.0407C34.148 14.035 34.1421 14.0286 34.1356 14.0218C34.1211 14.0065 34.1058 13.9907 34.0887 13.9732C33.9961 14.0563 33.8954 14.1388 33.7861 14.2197C33.4469 14.4707 32.9865 14.4818 32.6356 14.2473C32.2874 14.0146 32.1213 13.5897 32.2187 13.183C32.2189 13.1823 32.2191 13.1814 32.2193 13.1801C32.2207 13.1733 32.2236 13.1587 32.227 13.1378C32.2338 13.095 32.2415 13.032 32.2436 12.9599C32.2485 12.7953 32.2216 12.684 32.1937 12.6329C32.1681 12.5863 32.1447 12.5396 32.1231 12.493C31.8209 12.5052 31.5367 12.4644 31.3057 12.4148C30.954 12.3394 30.6376 12.2238 30.4169 12.1324C30.3043 12.0858 30.2111 12.0432 30.1443 12.0113C30.1108 11.9952 30.0836 11.9818 30.0636 11.9717L30.0389 11.9591L30.0307 11.9549L30.0277 11.9533L30.0265 11.9526L30.0259 11.9523C30.0257 11.9522 30.0254 11.9521 30.4921 11.0677L30.0254 11.9521C29.6596 11.759 29.4504 11.3607 29.4991 10.9499C29.5439 10.5722 29.7982 10.2557 30.1505 10.1278C30.168 10.1129 30.2129 10.0678 30.2594 9.96499L30.5239 10.0846C30.5906 9.81097 30.7237 9.45489 30.9988 9.13635L31.3687 9.45584L31.3701 9.45706L31.755 9.78945C31.7552 9.78947 31.7554 9.78949 31.7556 9.78951M34.1533 14.0407L34.9817 10.1756L34.9812 10.1772L34.9803 10.1801L34.9788 10.185L34.9768 10.1909C34.9766 10.1918 34.9764 10.1922 34.9764 10.1922C34.9764 10.1922 34.9767 10.1915 34.9771 10.1902C34.9771 10.1902 34.9771 10.1902 34.9771 10.1902C34.9773 10.1898 34.9775 10.1892 34.9777 10.1887C34.9805 10.1812 34.9876 10.1631 34.9995 10.1372C35.0239 10.0845 35.0656 10.0063 35.1279 9.92201C35.1669 9.86932 35.2127 9.81576 35.2667 9.76454M34.1533 14.0407C34.2644 14.4245 34.5989 14.7148 35.0117 14.7572C35.5057 14.808 35.962 14.4887 36.0836 14.0073C36.5029 12.3464 36.0537 10.7996 35.2667 9.76454M34.1533 14.0407L35.2667 9.76454M31.7556 9.78951C31.7701 9.79098 31.7858 9.79238 31.8026 9.79361C31.9171 9.80198 32.0552 9.80038 32.185 9.77454C32.314 9.74886 32.398 9.70692 32.4508 9.66219C32.4915 9.62763 32.5617 9.55285 32.606 9.35706C32.611 9.33529 32.6166 9.31369 32.623 9.2923M31.7556 9.78951L31.7039 8.79133C32.0819 8.77175 32.4365 8.96712 32.623 9.2923M31.7556 9.78951C31.7039 8.79133 31.7035 8.79135 31.7032 8.79137L31.7025 8.7914L31.701 8.79148L31.6981 8.79164L31.6922 8.792L31.6799 8.79285C31.6715 8.79349 31.6627 8.79424 31.6536 8.79515C31.6354 8.79696 31.6156 8.79937 31.5946 8.80255C31.5524 8.8089 31.5048 8.81832 31.4527 8.83216C31.3481 8.85997 31.2272 8.90527 31.0992 8.97762L31.0979 8.97831C30.767 9.16597 30.4741 9.48683 30.2583 9.96748L30.5234 10.0865L35.2667 9.76454M32.623 9.2923C32.6231 9.29242 32.6231 9.29255 32.6232 9.29268C32.6233 9.29231 32.6234 9.29195 32.6235 9.29159C32.6258 9.2837 32.6281 9.27583 32.6306 9.26799M32.623 9.2923C32.6231 9.29203 32.6231 9.29177 32.6232 9.29151C32.6257 9.28319 32.6282 9.27532 32.6306 9.26799M32.6306 9.26799C32.6387 9.24284 32.6459 9.22412 32.6489 9.21625C32.6507 9.21172 32.6527 9.20661 32.6519 9.20863L32.6475 9.22001C32.6419 9.23494 32.633 9.25948 32.6237 9.29165C32.6236 9.29208 32.6235 9.2925 32.6233 9.29293C32.6341 9.31168 32.6443 9.33086 32.6538 9.35045C32.657 9.35694 32.6601 9.36345 32.6631 9.36999C32.6715 9.38806 32.6793 9.40631 32.6865 9.42469C32.7613 9.61508 32.7747 9.82067 32.7302 10.0142C32.8265 9.99385 32.9262 9.98755 33.0264 9.9966C33.0091 9.83399 33.0316 9.66667 33.0963 9.51002C33.0986 9.50371 33.1011 9.49712 33.1036 9.49027C33.1037 9.49001 33.1038 9.48976 33.1039 9.4895C33.1061 9.48364 33.1084 9.47758 33.1108 9.47132C33.1145 9.4616 33.1184 9.45141 33.1227 9.44077C33.1302 9.42183 33.1385 9.40148 33.1478 9.37985M32.6306 9.26799C32.6405 9.23628 32.6519 9.20504 32.665 9.17441L33.1478 9.37985M33.1478 9.37985L33.1588 9.38456C33.1588 9.38455 33.1588 9.38453 33.1588 9.38452C33.1551 9.38294 33.1514 9.38137 33.1478 9.37981M33.1478 9.37985C33.1478 9.37984 33.1478 9.37982 33.1478 9.37981M33.1478 9.37981C33.1587 9.35415 33.1708 9.32669 33.1843 9.29765C33.2542 9.14638 33.3621 8.94596 33.5204 8.73213C33.8394 8.30119 34.3764 7.80068 35.2117 7.57103L35.2121 7.57094C35.7261 7.42981 36.1503 7.40002 36.4696 7.41421C36.6003 7.42002 36.7121 7.43314 36.804 7.44844C36.8238 7.45173 36.8426 7.45512 36.8605 7.45857C36.9046 7.46704 36.943 7.47579 36.9755 7.48406C36.9802 7.48526 36.9848 7.48646 36.9893 7.48764C37.007 7.49229 37.0227 7.49673 37.0364 7.50082L37.0555 7.50668L37.0639 7.50938L37.0679 7.51067L37.0698 7.51129L37.0707 7.5116C37.0711 7.51172 37.0714 7.51183 36.9374 7.91495C37.1142 8.2987 36.7559 8.46075 36.7559 8.46075M33.1478 9.37981C32.665 9.17425 32.6652 9.17392 32.6653 9.17359L32.6657 9.17271L32.6665 9.17078L32.6685 9.1663L32.6735 9.15482C32.6774 9.14608 32.6823 9.13515 32.6882 9.12221C32.7002 9.09633 32.7163 9.06227 32.7369 9.0213C32.7779 8.93955 32.8368 8.82912 32.9147 8.70053C33.0688 8.44599 33.3056 8.10612 33.6354 7.77517C34.3047 7.10366 35.4067 6.43259 36.9289 6.68007C37.1567 6.71711 37.3647 6.83181 37.5176 7.00471C37.7154 7.2284 37.8835 7.49727 37.9531 7.81392C38.0274 8.15176 37.9724 8.4692 37.8395 8.72959C37.7168 8.97004 37.5477 9.1249 37.4327 9.21222C37.3722 9.25821 37.3166 9.29306 37.2726 9.31821C37.2503 9.33095 37.2301 9.34167 37.2126 9.35049C37.2039 9.35492 37.1957 9.3589 37.1883 9.36245L37.1776 9.36748L37.1727 9.36977L37.1703 9.37085L37.1691 9.37138C37.1685 9.37164 37.168 9.3719 36.7559 8.46075M36.7559 8.46075C36.7559 8.46075 36.7177 8.44805 36.6435 8.43549L36.608 8.65415C36.1862 8.58557 35.8407 8.6596 35.5523 8.80994L35.7419 9.49948C35.7418 9.49951 35.7417 9.49954 35.7416 9.49958M36.7559 8.46075L37.168 9.3719C36.9518 9.46968 36.7083 9.48721 36.481 9.42224M35.7416 9.49958L35.5523 8.80999C35.3626 8.90893 35.1976 9.0409 35.052 9.18702C34.9993 9.23992 34.9501 9.29389 34.9046 9.34766C35.0313 9.47505 35.1526 9.61441 35.2667 9.76454M35.7416 9.49958C35.5354 9.55631 35.3822 9.65509 35.2667 9.76454M35.7416 9.49958C36.051 9.41461 36.2664 9.40715 36.3808 9.41224C36.4352 9.41465 36.4689 9.42001 36.481 9.42224M36.481 9.42224C36.4818 9.42239 36.4825 9.42252 36.4831 9.42264C36.4852 9.42304 36.4863 9.42327 36.4863 9.42327C36.4863 9.42327 36.4842 9.42282 36.4801 9.42172C36.4765 9.42078 36.4714 9.41938 36.4648 9.4174L36.4536 9.41397L36.4472 9.41191L36.4437 9.41079L36.442 9.4102L36.4413 9.40999M36.481 9.42224C36.4677 9.41844 36.4545 9.41435 36.4413 9.40999M36.4413 9.40999L36.4411 9.4099C36.4411 9.4099 36.4411 9.4099 36.4411 9.4099C36.4411 9.40993 36.4412 9.40996 36.4413 9.40999ZM32.2208 13.1747L32.2208 13.1744C32.2208 13.1744 32.2208 13.1744 32.2208 13.1744C32.2208 13.1745 32.2208 13.1746 32.2208 13.1747ZM32.2208 13.1747L32.2207 13.1749L32.2206 13.1753C32.2206 13.1751 32.2207 13.1749 32.2208 13.1747ZM33.5851 9.56597L33.229 9.41441L33.5851 9.56597Z" fill="#38B549" stroke="#EF7127" stroke-width="2" stroke-linejoin="round"/>
<path d="M2.28429 19.6608C1.7302 19.2426 2.181 18.3548 2.84475 18.5598C6.1273 19.5731 10.4453 19.8135 13.1345 19.5117C16.3072 19.1555 19.1448 17.1667 21.3869 15.431C22.8092 14.3306 25.63 11.5231 27.0643 10.4168C29.0665 8.87275 33.2889 8.02558 34.6921 12.4442C35.5898 15.2729 32.0085 18.6714 30.3806 19.8763C25.8214 23.2524 19.1067 26.1772 13.3342 24.6801C8.00365 23.2973 4.48849 21.3229 2.28508 19.6612L2.28429 19.6608Z" fill="#E12726"/>
<path d="M33.1877 13.4158C33.1877 13.4158 33.3664 12.6995 33.0675 12.153C32.7687 11.6065 32.9332 10.9926 32.9332 10.9926C32.4031 12.0768 30.4891 11.0668 30.4891 11.0668C30.4891 11.0668 30.9028 10.9614 31.1675 10.3762C31.4322 9.79104 31.7534 9.78955 31.7534 9.78955L30.9915 9.4138C30.2297 9.03805 30.0201 8.35317 30.0201 8.35317C30.0201 8.35317 30.3313 8.62909 30.9996 8.75533C32.0342 8.95121 32.7207 8.99377 33.8048 9.71599C34.7485 10.3445 35.5692 11.9522 35.1122 13.7612C35.1007 13.4711 34.6874 13.2207 34.3993 12.8271C34.2232 12.5864 34.1166 12.0785 34.1166 12.0785C34.1166 12.0785 34.0565 12.7724 33.189 13.4154L33.1877 13.4158Z" fill="#38B549"/>
<path d="M35.114 13.7625C35.5352 12.0941 34.8671 10.6068 34.0208 9.89145L34.0251 9.88421C34.0251 9.88421 34.3387 8.84815 35.4768 8.53526C36.3003 8.30917 36.7559 8.46075 36.7559 8.46075C36.7559 8.46075 37.2661 8.22999 36.7684 7.66711C34.5469 7.30592 33.5851 9.56597 33.5851 9.56597C33.5844 9.57094 33.5825 9.57416 33.5813 9.57785C33.2254 11.1501 31.4461 10.7536 31.4461 10.7536C31.4461 10.7536 31.4197 10.179 31.7556 9.78999C31.7556 9.78999 31.688 9.79349 31.5912 9.84819C31.4749 9.91414 31.3142 10.0571 31.1705 10.3771C30.9058 10.9623 30.4921 11.0677 30.4921 11.0677C30.4921 11.0677 32.4061 12.0777 32.9367 10.9927C32.9367 10.9927 32.7722 11.6067 33.071 12.1531C33.3699 12.6996 33.1912 13.4159 33.1912 13.4159C34.0595 12.7733 34.1188 12.0789 34.1188 12.0789C34.1188 12.0789 34.2267 12.5865 34.4016 12.8276C34.6896 13.2211 35.1017 13.4719 35.114 13.7625Z" fill="#38B549"/>
</svg>
