<svg width="143" height="128" viewBox="0 0 143 128" fill="none" xmlns="http://www.w3.org/2000/svg">
<path d="M128.356 42.5784L128.155 43.335L128.841 43.7121C136.376 47.8536 141.399 55.1627 141.668 63.4844V64.1895C141.668 72.8017 136.566 80.4087 128.829 84.6671L128.144 85.0444L128.345 85.8005C130.424 93.6107 128.074 102.204 121.207 108.345C114.328 114.499 104.623 116.653 95.7562 114.764L95.1023 114.625L94.7236 115.176C89.9927 122.062 81.4577 126.689 71.674 126.689C61.8909 126.689 53.3553 122.052 48.6239 115.176L48.2452 114.625L47.5918 114.764C38.7248 116.653 29.0204 114.499 22.1405 108.345C15.2744 102.204 12.9235 93.6107 15.0031 85.8005L15.2045 85.0439L14.5184 84.6668C6.77121 80.4086 1.67969 72.8122 1.67969 64.1895C1.67969 55.5669 6.77099 47.9706 14.5293 43.7124L15.216 43.3355L15.0145 42.5784C12.9349 34.7682 15.2858 26.1751 22.1519 20.0339C29.0319 13.8802 38.7362 11.7258 47.6032 13.6146L48.2571 13.7539L48.6357 13.2028C53.3667 6.31673 61.9017 1.68945 71.6854 1.68945C81.4684 1.68945 90.0041 6.32645 94.7354 13.2033L95.1141 13.7538L95.7676 13.6146C104.635 11.7258 114.339 13.8802 121.219 20.0339C128.085 26.1751 130.436 34.7682 128.356 42.5784Z" fill="black" stroke="#EF7127" stroke-width="2"/>
</svg>
