<?xml version="1.0" standalone="no"?>
<!DOCTYPE svg PUBLIC "-//W3C//DTD SVG 20010904//EN"
 "http://www.w3.org/TR/2001/REC-SVG-20010904/DTD/svg10.dtd">
<svg version="1.0" xmlns="http://www.w3.org/2000/svg"
 width="512.000000pt" height="512.000000pt" viewBox="0 0 512.000000 512.000000"
 preserveAspectRatio="xMidYMid meet">
<metadata>
Created by potrace 1.14, written by Peter Selinger 2001-2017
</metadata>
<g transform="translate(0.000000,512.000000) scale(0.100000,-0.100000)"
fill="#000000" stroke="none">
<path d="M0 2560 l0 -2560 2560 0 2560 0 0 2560 0 2560 -2560 0 -2560 0 0
-2560z m2750 1770 c37 -20 51 -66 114 -387 42 -211 43 -227 16 -270 -35 -59
-45 -58 -402 28 -189 46 -210 53 -233 81 -32 37 -31 56 1 104 34 49 318 367
373 417 43 39 91 49 131 27z m530 -984 c282 -73 450 -301 411 -556 -13 -84
-166 -514 -506 -1419 -115 -307 -134 -348 -201 -416 -103 -106 -232 -164 -385
-172 -233 -13 -449 97 -537 274 -40 80 -522 1373 -610 1638 -44 132 -35 276
25 388 60 111 192 213 327 252 103 30 187 33 806 31 531 -3 613 -5 670 -20z"/>
<path d="M1979 2980 c-58 -10 -105 -34 -120 -62 -28 -52 -9 -116 275 -888 153
-415 289 -774 302 -797 64 -112 201 -90 267 42 17 34 138 360 394 1055 178
486 192 535 164 589 -7 12 -34 33 -59 44 -46 22 -56 22 -612 24 -311 0 -586
-2 -611 -7z"/>
</g>
</svg>
